<?xml version="1.0"?><svg xmlns="http://www.w3.org/2000/svg" viewBox="0 0 100 100"><ellipse cx="50" cy="87.015" rx="10.917" ry="2.985" fill="#323232"/><path d="M46.786 10.178c-13.125 1.452-23.614 12.15-24.838 25.298-.995 10.689 3.986 20.287 11.987 25.846C41.979 66.912 47.628 75.313 49.079 85l.121.806a1.118 1.118 0 0 0 2.212 0l.265-1.77c1.393-9.297 6.785-17.378 14.482-22.775 7.267-5.096 12.018-13.535 12.018-23.084 0-16.62-14.39-29.88-31.391-27.999zM50 49.189c-6.082 0-11.012-4.93-11.012-11.012 0-6.082 4.93-11.012 11.012-11.012s11.012 4.93 11.012 11.012c0 6.082-4.93 11.012-11.012 11.012z" fill="#c33736"/><metadata xmlns:d="https://loading.io/stock/">
<d:name>marker</d:name>
<d:tags>marker,location,localize,site,map,poi</d:tags>
<d:license>by</d:license>
<d:slug>e7mkwk</d:slug>
</metadata></svg>